<?xml version="1.0" encoding="UTF-8" standalone="no"?>
<!DOCTYPE svg PUBLIC "-//W3C//DTD SVG 1.1//EN"
 "http://www.w3.org/Graphics/SVG/1.1/DTD/svg11.dtd">
<!-- Generated by graphviz version 14.1.2 (20260124.0452)
 -->
<!-- Title: SelfLearningGraph Pages: 1 -->
<svg width="1232pt" height="670pt"
 viewBox="0.00 0.00 1232.00 670.00" xmlns="http://www.w3.org/2000/svg" xmlns:xlink="http://www.w3.org/1999/xlink">
<g id="graph0" class="graph" transform="scale(1 1) rotate(0) translate(4 665.5)">
<title>SelfLearningGraph</title>
<polygon fill="white" stroke="none" points="-4,4 -4,-665.5 1228,-665.5 1228,4 -4,4"/>
<g id="clust1" class="cluster">
<title>cluster_Math_Fundamental</title>
<path fill="lightblue" stroke="darkblue" stroke-width="2" d="M494,-174.5C494,-174.5 1094,-174.5 1094,-174.5 1100,-174.5 1106,-180.5 1106,-186.5 1106,-186.5 1106,-641.5 1106,-641.5 1106,-647.5 1100,-653.5 1094,-653.5 1094,-653.5 494,-653.5 494,-653.5 488,-653.5 482,-647.5 482,-641.5 482,-641.5 482,-186.5 482,-186.5 482,-180.5 488,-174.5 494,-174.5"/>
<text xml:space="preserve" text-anchor="middle" x="794" y="-636.2" font-family="Times New Roman,serif" font-size="14.00" fill="darkblue">Math Fundamental</text>
</g>
<g id="clust6" class="cluster">
<title>cluster_Math_Advance</title>
<path fill="lightblue" stroke="darkblue" stroke-width="2" d="M846,-8C846,-8 1204,-8 1204,-8 1210,-8 1216,-14 1216,-20 1216,-20 1216,-154.5 1216,-154.5 1216,-160.5 1210,-166.5 1204,-166.5 1204,-166.5 846,-166.5 846,-166.5 840,-166.5 834,-160.5 834,-154.5 834,-154.5 834,-20 834,-20 834,-14 840,-8 846,-8"/>
<text xml:space="preserve" text-anchor="middle" x="1025" y="-149.2" font-family="Times New Roman,serif" font-size="14.00" fill="darkblue">Math Advance</text>
</g>
<g id="clust9" class="cluster">
<title>cluster_CS_Beginner</title>
<path fill="lightblue" stroke="darkblue" stroke-width="2" d="M20,-418C20,-418 454,-418 454,-418 460,-418 466,-424 466,-430 466,-430 466,-639 466,-639 466,-645 460,-651 454,-651 454,-651 20,-651 20,-651 14,-651 8,-645 8,-639 8,-639 8,-430 8,-430 8,-424 14,-418 20,-418"/>
<text xml:space="preserve" text-anchor="middle" x="237" y="-633.7" font-family="Times New Roman,serif" font-size="14.00" fill="darkblue">CS Beginner</text>
</g>
<g id="clust13" class="cluster">
<title>cluster_CS_Fundamental</title>
<path fill="lightblue" stroke="darkblue" stroke-width="2" d="M38,-8C38,-8 462,-8 462,-8 468,-8 474,-14 474,-20 474,-20 474,-398 474,-398 474,-404 468,-410 462,-410 462,-410 38,-410 38,-410 32,-410 26,-404 26,-398 26,-398 26,-20 26,-20 26,-14 32,-8 38,-8"/>
<text xml:space="preserve" text-anchor="middle" x="250" y="-392.7" font-family="Times New Roman,serif" font-size="14.00" fill="darkblue">CS Fundamental</text>
</g>
<g id="clust19" class="cluster">
<title>cluster_NLP</title>
<path fill="lightblue" stroke="darkblue" stroke-width="2" d="M588,-8C588,-8 814,-8 814,-8 820,-8 826,-14 826,-20 826,-20 826,-154.5 826,-154.5 826,-160.5 820,-166.5 814,-166.5 814,-166.5 588,-166.5 588,-166.5 582,-166.5 576,-160.5 576,-154.5 576,-154.5 576,-20 576,-20 576,-14 582,-8 588,-8"/>
<text xml:space="preserve" text-anchor="middle" x="701" y="-149.2" font-family="Times New Roman,serif" font-size="14.00" fill="darkblue">NLP</text>
</g>
<!-- HowToAskQuestionsTheSmartWay -->
<g id="node1" class="node">
<title>HowToAskQuestionsTheSmartWay</title>
<g id="a_node1"><a xlink:href="http://www.catb.org/~esr/faqs/smart-questions.html" xlink:title="How To Ask Questions The Smart Way">
<polygon fill="none" stroke="black" points="458.25,-618.5 227.75,-618.5 227.75,-582.5 458.25,-582.5 458.25,-618.5"/>
<text xml:space="preserve" text-anchor="middle" x="343" y="-595.45" font-family="Times New Roman,serif" font-size="14.00">How To Ask Questions The Smart Way</text>
</a>
</g>
</g>
<!-- Sysadmin -->
<g id="node3" class="node">
<title>Sysadmin</title>
<g id="a_node3"><a xlink:href="https://decal.ocf.berkeley.edu/archives/2024-fall/" xlink:title="OCF Linux System Administration DeCal">
<polygon fill="none" stroke="black" points="441.12,-541.5 194.88,-541.5 194.88,-505.5 441.12,-505.5 441.12,-541.5"/>
<text xml:space="preserve" text-anchor="middle" x="318" y="-518.45" font-family="Times New Roman,serif" font-size="14.00">OCF Linux System Administration DeCal</text>
</a>
</g>
</g>
<!-- HowToAskQuestionsTheSmartWay&#45;&gt;Sysadmin -->
<g id="edge10" class="edge">
<title>HowToAskQuestionsTheSmartWay&#45;&gt;Sysadmin</title>
<path fill="none" stroke="black" d="M337.2,-582.1C334.27,-573.3 330.63,-562.4 327.32,-552.46"/>
<polygon fill="black" stroke="black" points="330.73,-551.62 324.25,-543.24 324.09,-553.83 330.73,-551.62"/>
</g>
<!-- CrashCourseComputerScience -->
<g id="node2" class="node">
<title>CrashCourseComputerScience</title>
<g id="a_node2"><a xlink:href="https://youtube.com/playlist?list=PL8dPuuaLjXtNlUrzyH5r6jN9ulIgZBpdo" xlink:title="Crash Course Computer Science">
<polygon fill="none" stroke="black" points="209.88,-618.5 16.12,-618.5 16.12,-582.5 209.88,-582.5 209.88,-618.5"/>
<text xml:space="preserve" text-anchor="middle" x="113" y="-595.45" font-family="Times New Roman,serif" font-size="14.00">Crash Course Computer Science</text>
</a>
</g>
</g>
<!-- CrashCourseComputerScience&#45;&gt;Sysadmin -->
<g id="edge11" class="edge">
<title>CrashCourseComputerScience&#45;&gt;Sysadmin</title>
<path fill="none" stroke="black" d="M160.8,-582.01C190.33,-571.21 228.42,-557.27 259.72,-545.82"/>
<polygon fill="black" stroke="black" points="260.86,-549.13 269.05,-542.41 258.46,-542.56 260.86,-549.13"/>
</g>
<!-- MITMissingSemester -->
<g id="node4" class="node">
<title>MITMissingSemester</title>
<g id="a_node4"><a xlink:href="https://missing.csail.mit.edu/2020/" xlink:title="MIT 6.NULL\nThe Missing Semester of Your CS Education">
<polygon fill="none" stroke="black" points="449.38,-467 186.62,-467 186.62,-426 449.38,-426 449.38,-467"/>
<text xml:space="preserve" text-anchor="middle" x="318" y="-449.7" font-family="Times New Roman,serif" font-size="14.00">MIT 6.NULL</text>
<text xml:space="preserve" text-anchor="middle" x="318" y="-433.2" font-family="Times New Roman,serif" font-size="14.00">The Missing Semester of Your CS Education</text>
</a>
</g>
</g>
<!-- Sysadmin&#45;&gt;MITMissingSemester -->
<g id="edge12" class="edge">
<title>Sysadmin&#45;&gt;MITMissingSemester</title>
<path fill="none" stroke="black" d="M318,-505.1C318,-497.28 318,-487.8 318,-478.81"/>
<polygon fill="black" stroke="black" points="321.5,-478.96 318,-468.96 314.5,-478.96 321.5,-478.96"/>
</g>
<!-- MIT6_100L -->
<g id="node5" class="node">
<title>MIT6_100L</title>
<g id="a_node5"><a xlink:href="https://ocw.mit.edu/courses/6-100l-introduction-to-cs-and-programming-using-python-fall-2022/" xlink:title="!MIT 6.100L\nIntroduction to CS and Programming using Python">
<polygon fill="none" stroke="black" points="465.5,-377.5 170.5,-377.5 170.5,-336.5 465.5,-336.5 465.5,-377.5"/>
<text xml:space="preserve" text-anchor="middle" x="318" y="-360.2" font-family="Times New Roman,serif" font-size="14.00">!MIT 6.100L</text>
<text xml:space="preserve" text-anchor="middle" x="318" y="-343.7" font-family="Times New Roman,serif" font-size="14.00">Introduction to CS and Programming using Python</text>
</a>
</g>
</g>
<!-- MITMissingSemester&#45;&gt;MIT6_100L -->
<g id="edge20" class="edge">
<title>MITMissingSemester&#45;&gt;MIT6_100L</title>
<path fill="none" stroke="black" d="M318,-425.64C318,-414.9 318,-401.39 318,-389.28"/>
<polygon fill="black" stroke="black" points="321.5,-389.29 318,-379.29 314.5,-389.29 321.5,-389.29"/>
</g>
<!-- UCBCS61A -->
<g id="node6" class="node">
<title>UCBCS61A</title>
<g id="a_node6"><a xlink:href="https://web.archive.org/web/20201219202517/https://cs61a.org/" xlink:title="!UCB CS61A\nStructure and Interpretation of Computer Programs">
<polygon fill="none" stroke="black" points="465.88,-300.5 170.12,-300.5 170.12,-259.5 465.88,-259.5 465.88,-300.5"/>
<text xml:space="preserve" text-anchor="middle" x="318" y="-283.2" font-family="Times New Roman,serif" font-size="14.00">!UCB CS61A</text>
<text xml:space="preserve" text-anchor="middle" x="318" y="-266.7" font-family="Times New Roman,serif" font-size="14.00">Structure and Interpretation of Computer Programs</text>
</a>
</g>
</g>
<!-- MIT6_100L&#45;&gt;UCBCS61A -->
<g id="edge13" class="edge">
<title>MIT6_100L&#45;&gt;UCBCS61A</title>
<path fill="none" stroke="black" d="M311.98,-336.29C311.33,-328.95 311.11,-320.41 311.33,-312.28"/>
<polygon fill="black" stroke="black" points="314.82,-312.52 311.88,-302.35 307.84,-312.14 314.82,-312.52"/>
</g>
<!-- MIT6_100L&#45;&gt;UCBCS61A -->
<!-- UCBCS61B -->
<g id="node7" class="node">
<title>UCBCS61B</title>
<g id="a_node7"><a xlink:href="https://sp21.datastructur.es/" xlink:title="!UCB CS61B\nData Structures and Algorithms">
<polygon fill="none" stroke="black" points="412.25,-223.5 223.75,-223.5 223.75,-182.5 412.25,-182.5 412.25,-223.5"/>
<text xml:space="preserve" text-anchor="middle" x="318" y="-206.2" font-family="Times New Roman,serif" font-size="14.00">!UCB CS61B</text>
<text xml:space="preserve" text-anchor="middle" x="318" y="-189.7" font-family="Times New Roman,serif" font-size="14.00">Data Structures and Algorithms</text>
</a>
</g>
</g>
<!-- UCBCS61A&#45;&gt;UCBCS61B -->
<g id="edge15" class="edge">
<title>UCBCS61A&#45;&gt;UCBCS61B</title>
<path fill="none" stroke="black" d="M318,-259.29C318,-251.95 318,-243.41 318,-235.28"/>
<polygon fill="black" stroke="black" points="321.5,-235.35 318,-225.35 314.5,-235.35 321.5,-235.35"/>
</g>
<!-- MIT6_005 -->
<g id="node9" class="node">
<title>MIT6_005</title>
<g id="a_node9"><a xlink:href="https://web.mit.edu/6.005/www/sp16/" xlink:title="!MIT 6.005\nSoftware Construction">
<polygon fill="none" stroke="black" points="206.12,-223.5 67.88,-223.5 67.88,-182.5 206.12,-182.5 206.12,-223.5"/>
<text xml:space="preserve" text-anchor="middle" x="137" y="-206.2" font-family="Times New Roman,serif" font-size="14.00">!MIT 6.005</text>
<text xml:space="preserve" text-anchor="middle" x="137" y="-189.7" font-family="Times New Roman,serif" font-size="14.00">Software Construction</text>
</a>
</g>
</g>
<!-- UCBCS61A&#45;&gt;MIT6_005 -->
<g id="edge16" class="edge">
<title>UCBCS61A&#45;&gt;MIT6_005</title>
<path fill="none" stroke="black" d="M269.97,-259.1C247.16,-249.65 219.7,-238.27 195.67,-228.31"/>
<polygon fill="black" stroke="black" points="197.23,-225.17 186.65,-224.57 194.55,-231.64 197.23,-225.17"/>
</g>
<!-- MIT6_006 -->
<g id="node10" class="node">
<title>MIT6_006</title>
<g id="a_node10"><a xlink:href="https://ocw.mit.edu/courses/6-006-introduction-to-algorithms-fall-2011/" xlink:title="!MIT 6.006\nIntroduction to Algorithms">
<polygon fill="none" stroke="black" points="652.12,-223.5 489.88,-223.5 489.88,-182.5 652.12,-182.5 652.12,-223.5"/>
<text xml:space="preserve" text-anchor="middle" x="571" y="-206.2" font-family="Times New Roman,serif" font-size="14.00">!MIT 6.006</text>
<text xml:space="preserve" text-anchor="middle" x="571" y="-189.7" font-family="Times New Roman,serif" font-size="14.00">Introduction to Algorithms</text>
</a>
</g>
</g>
<!-- UCBCS61A&#45;&gt;MIT6_006 -->
<g id="edge21" class="edge">
<title>UCBCS61A&#45;&gt;MIT6_006</title>
<path fill="none" stroke="black" d="M385.14,-259.1C418.16,-249.31 458.16,-237.45 492.59,-227.25"/>
<polygon fill="black" stroke="black" points="493.51,-230.62 502.1,-224.42 491.52,-223.91 493.51,-230.62"/>
</g>
<!-- CMU11711 -->
<g id="node23" class="node">
<title>CMU11711</title>
<g id="a_node23"><a xlink:href="https://cmu-l3.github.io/anlp-fall2025/" xlink:title="!CMU 11&#45;711\nAdvanced Natural Language Processing">
<polygon fill="none" stroke="black" points="818.12,-134 583.88,-134 583.88,-93 818.12,-93 818.12,-134"/>
<text xml:space="preserve" text-anchor="middle" x="701" y="-116.7" font-family="Times New Roman,serif" font-size="14.00">!CMU 11&#45;711</text>
<text xml:space="preserve" text-anchor="middle" x="701" y="-100.2" font-family="Times New Roman,serif" font-size="14.00">Advanced Natural Language Processing</text>
</a>
</g>
</g>
<!-- UCBCS61A&#45;&gt;CMU11711 -->
<g id="edge23" class="edge">
<title>UCBCS61A&#45;&gt;CMU11711</title>
<path fill="none" stroke="black" d="M359.8,-259.08C379.01,-249.27 401.75,-236.73 421,-223.5 448.53,-204.58 448.47,-190.12 478,-174.5 508.7,-158.26 544.16,-146.15 577.64,-137.22"/>
<polygon fill="black" stroke="black" points="578.16,-140.7 586.96,-134.81 576.41,-133.92 578.16,-140.7"/>
</g>
<!-- CMU15213 -->
<g id="node8" class="node">
<title>CMU15213</title>
<g id="a_node8"><a xlink:href="https://www.cs.cmu.edu/~213/" xlink:title="!CMU 15&#45;213\nIntroduction to Computer Systems">
<polygon fill="none" stroke="black" points="239.5,-134 34.5,-134 34.5,-93 239.5,-93 239.5,-134"/>
<text xml:space="preserve" text-anchor="middle" x="137" y="-116.7" font-family="Times New Roman,serif" font-size="14.00">!CMU 15&#45;213</text>
<text xml:space="preserve" text-anchor="middle" x="137" y="-100.2" font-family="Times New Roman,serif" font-size="14.00">Introduction to Computer Systems</text>
</a>
</g>
</g>
<!-- UCBCS61B&#45;&gt;CMU15213 -->
<g id="edge18" class="edge">
<title>UCBCS61B&#45;&gt;CMU15213</title>
<path fill="none" stroke="black" d="M276.93,-182.14C250.64,-169.44 216.32,-152.85 188.25,-139.28"/>
<polygon fill="black" stroke="black" points="190.11,-136.29 179.58,-135.09 187.06,-142.59 190.11,-136.29"/>
</g>
<!-- MIT6_046J -->
<g id="node11" class="node">
<title>MIT6_046J</title>
<g id="a_node11"><a xlink:href="https://ocw.mit.edu/courses/6-046j-design-and-analysis-of-algorithms-spring-2015/" xlink:title="!MIT 6.046J\nDesign and Analysis of Algorithms">
<polygon fill="none" stroke="black" points="466,-134 258,-134 258,-93 466,-93 466,-134"/>
<text xml:space="preserve" text-anchor="middle" x="362" y="-116.7" font-family="Times New Roman,serif" font-size="14.00">!MIT 6.046J</text>
<text xml:space="preserve" text-anchor="middle" x="362" y="-100.2" font-family="Times New Roman,serif" font-size="14.00">Design and Analysis of Algorithms</text>
</a>
</g>
</g>
<!-- MIT6_006&#45;&gt;MIT6_046J -->
<g id="edge22" class="edge">
<title>MIT6_006&#45;&gt;MIT6_046J</title>
<path fill="none" stroke="black" d="M523.31,-182.04C492.55,-169.16 452.34,-152.32 419.77,-138.69"/>
<polygon fill="black" stroke="black" points="421.45,-135.6 410.88,-134.96 418.75,-142.05 421.45,-135.6"/>
</g>
<!-- MIT6_854J -->
<g id="node12" class="node">
<title>MIT6_854J</title>
<g id="a_node12"><a xlink:href="https://ocw.mit.edu/courses/6-854j-advanced-algorithms-fall-2005/" xlink:title="!MIT 6.854J\nAdvanced Algorithms">
<polygon fill="none" stroke="black" points="430,-57 294,-57 294,-16 430,-16 430,-57"/>
<text xml:space="preserve" text-anchor="middle" x="362" y="-39.7" font-family="Times New Roman,serif" font-size="14.00">!MIT 6.854J</text>
<text xml:space="preserve" text-anchor="middle" x="362" y="-23.2" font-family="Times New Roman,serif" font-size="14.00">Advanced Algorithms</text>
</a>
</g>
</g>
<!-- MIT6_046J&#45;&gt;MIT6_854J -->
<g id="edge17" class="edge">
<title>MIT6_046J&#45;&gt;MIT6_854J</title>
<path fill="none" stroke="black" d="M362,-92.79C362,-85.45 362,-76.91 362,-68.78"/>
<polygon fill="black" stroke="black" points="365.5,-68.85 362,-58.85 358.5,-68.85 365.5,-68.85"/>
</g>
<!-- MIT6_1200J -->
<g id="node13" class="node">
<title>MIT6_1200J</title>
<g id="a_node13"><a xlink:href="https://ocw.mit.edu/courses/6-1200j-mathematics-for-computer-science-spring-2024/" xlink:title="!MIT 6.1200J\nMathematics for Computer Science">
<polygon fill="none" stroke="black" points="701.5,-544 490.5,-544 490.5,-503 701.5,-503 701.5,-544"/>
<text xml:space="preserve" text-anchor="middle" x="596" y="-526.7" font-family="Times New Roman,serif" font-size="14.00">!MIT 6.1200J</text>
<text xml:space="preserve" text-anchor="middle" x="596" y="-510.2" font-family="Times New Roman,serif" font-size="14.00">Mathematics for Computer Science</text>
</a>
</g>
</g>
<!-- MIT6_1200J&#45;&gt;MIT6_006 -->
<g id="edge3" class="edge">
<title>MIT6_1200J&#45;&gt;MIT6_006</title>
<path fill="none" stroke="black" d="M540.76,-502.66C525.12,-494.19 509.94,-482.57 501,-467 456.68,-389.78 515.53,-283.74 549.69,-233.15"/>
<polygon fill="black" stroke="black" points="552.48,-235.26 555.29,-225.04 546.72,-231.28 552.48,-235.26"/>
</g>
<!-- MIT18_01SC -->
<g id="node14" class="node">
<title>MIT18_01SC</title>
<g id="a_node14"><a xlink:href="https://ocw.mit.edu/courses/18-01sc-single-variable-calculus-fall-2010/" xlink:title="!MIT 18.01SC\nSingle Variable Calculus">
<polygon fill="none" stroke="black" points="767.75,-621 618.25,-621 618.25,-580 767.75,-580 767.75,-621"/>
<text xml:space="preserve" text-anchor="middle" x="693" y="-603.7" font-family="Times New Roman,serif" font-size="14.00">!MIT 18.01SC</text>
<text xml:space="preserve" text-anchor="middle" x="693" y="-587.2" font-family="Times New Roman,serif" font-size="14.00">Single Variable Calculus</text>
</a>
</g>
</g>
<!-- MIT18_01SC&#45;&gt;MIT6_1200J -->
<g id="edge2" class="edge">
<title>MIT18_01SC&#45;&gt;MIT6_1200J</title>
<path fill="none" stroke="black" d="M667.26,-579.6C656.08,-570.95 642.81,-560.69 630.77,-551.39"/>
<polygon fill="black" stroke="black" points="633.11,-548.77 623.06,-545.42 628.83,-554.31 633.11,-548.77"/>
</g>
<!-- MIT18_02SC -->
<g id="node15" class="node">
<title>MIT18_02SC</title>
<g id="a_node15"><a xlink:href="https://ocw.mit.edu/courses/18-02sc-multivariable-calculus-fall-2010/" xlink:title="!MIT 18.02SC\nMultivariable Calculus">
<polygon fill="none" stroke="black" points="860.62,-544 719.38,-544 719.38,-503 860.62,-503 860.62,-544"/>
<text xml:space="preserve" text-anchor="middle" x="790" y="-526.7" font-family="Times New Roman,serif" font-size="14.00">!MIT 18.02SC</text>
<text xml:space="preserve" text-anchor="middle" x="790" y="-510.2" font-family="Times New Roman,serif" font-size="14.00">Multivariable Calculus</text>
</a>
</g>
</g>
<!-- MIT18_01SC&#45;&gt;MIT18_02SC -->
<g id="edge1" class="edge">
<title>MIT18_01SC&#45;&gt;MIT18_02SC</title>
<path fill="none" stroke="black" d="M718.74,-579.6C729.92,-570.95 743.19,-560.69 755.23,-551.39"/>
<polygon fill="black" stroke="black" points="757.17,-554.31 762.94,-545.42 752.89,-548.77 757.17,-554.31"/>
</g>
<!-- MIT18_03SC -->
<g id="node16" class="node">
<title>MIT18_03SC</title>
<g id="a_node16"><a xlink:href="https://ocw.mit.edu/courses/18-03sc-differential-equations-fall-2011/" xlink:title="!MIT 18.03SC\nDifferential Equations">
<polygon fill="none" stroke="black" points="646.38,-467 509.62,-467 509.62,-426 646.38,-426 646.38,-467"/>
<text xml:space="preserve" text-anchor="middle" x="578" y="-449.7" font-family="Times New Roman,serif" font-size="14.00">!MIT 18.03SC</text>
<text xml:space="preserve" text-anchor="middle" x="578" y="-433.2" font-family="Times New Roman,serif" font-size="14.00">Differential Equations</text>
</a>
</g>
</g>
<!-- MIT18_02SC&#45;&gt;MIT18_03SC -->
<g id="edge4" class="edge">
<title>MIT18_02SC&#45;&gt;MIT18_03SC</title>
<path fill="none" stroke="black" d="M733.74,-502.6C706.55,-492.98 673.71,-481.36 645.21,-471.28"/>
<polygon fill="black" stroke="black" points="646.54,-468.04 635.95,-468 644.21,-474.63 646.54,-468.04"/>
</g>
<!-- MIT18_06SC -->
<g id="node17" class="node">
<title>MIT18_06SC</title>
<g id="a_node17"><a xlink:href="https://ocw.mit.edu/courses/18-06sc-linear-algebra-fall-2011/" xlink:title="!MIT 18.06SC\nLinear Algebra">
<polygon fill="none" stroke="black" points="761.88,-467 664.12,-467 664.12,-426 761.88,-426 761.88,-467"/>
<text xml:space="preserve" text-anchor="middle" x="713" y="-449.7" font-family="Times New Roman,serif" font-size="14.00">!MIT 18.06SC</text>
<text xml:space="preserve" text-anchor="middle" x="713" y="-433.2" font-family="Times New Roman,serif" font-size="14.00">Linear Algebra</text>
</a>
</g>
</g>
<!-- MIT18_02SC&#45;&gt;MIT18_06SC -->
<g id="edge5" class="edge">
<title>MIT18_02SC&#45;&gt;MIT18_06SC</title>
<path fill="none" stroke="black" d="M769.77,-502.79C761.08,-494.34 750.79,-484.3 741.36,-475.12"/>
<polygon fill="black" stroke="black" points="744.05,-472.86 734.45,-468.39 739.17,-477.87 744.05,-472.86"/>
</g>
<!-- MIT6_041SC -->
<g id="node19" class="node">
<title>MIT6_041SC</title>
<g id="a_node19"><a xlink:href="https://ocw.mit.edu/courses/6-041sc-probabilistic-systems-analysis-and-applied-probability-fall-2013/" xlink:title="!MIT 6.041SC\nProbabilistic Systems Analysis and Applied Probability">
<polygon fill="none" stroke="black" points="1097.75,-467 780.25,-467 780.25,-426 1097.75,-426 1097.75,-467"/>
<text xml:space="preserve" text-anchor="middle" x="939" y="-449.7" font-family="Times New Roman,serif" font-size="14.00">!MIT 6.041SC</text>
<text xml:space="preserve" text-anchor="middle" x="939" y="-433.2" font-family="Times New Roman,serif" font-size="14.00">Probabilistic Systems Analysis and Applied Probability</text>
</a>
</g>
</g>
<!-- MIT18_02SC&#45;&gt;MIT6_041SC -->
<g id="edge6" class="edge">
<title>MIT18_02SC&#45;&gt;MIT6_041SC</title>
<path fill="none" stroke="black" d="M829.54,-502.6C847.81,-493.4 869.71,-482.38 889.1,-472.62"/>
<polygon fill="black" stroke="black" points="890.57,-475.8 897.93,-468.18 887.42,-469.55 890.57,-475.8"/>
</g>
<!-- MIT18_330 -->
<g id="node18" class="node">
<title>MIT18_330</title>
<g id="a_node18"><a xlink:href="https://ocw.mit.edu/courses/18-330-introduction-to-numerical-analysis-spring-2012/pages/syllabus/" xlink:title="!MIT 18.330\nIntroduction to Numerical Analysis">
<polygon fill="none" stroke="black" points="879.38,-223.5 670.62,-223.5 670.62,-182.5 879.38,-182.5 879.38,-223.5"/>
<text xml:space="preserve" text-anchor="middle" x="775" y="-206.2" font-family="Times New Roman,serif" font-size="14.00">!MIT 18.330</text>
<text xml:space="preserve" text-anchor="middle" x="775" y="-189.7" font-family="Times New Roman,serif" font-size="14.00">Introduction to Numerical Analysis</text>
</a>
</g>
</g>
<!-- MIT18_03SC&#45;&gt;MIT18_330 -->
<g id="edge7" class="edge">
<title>MIT18_03SC&#45;&gt;MIT18_330</title>
<path fill="none" stroke="black" d="M594.12,-425.74C628.98,-383 711.5,-281.85 751.9,-232.32"/>
<polygon fill="black" stroke="black" points="754.37,-234.83 757.98,-224.87 748.94,-230.41 754.37,-234.83"/>
</g>
<!-- MIT18_06SC&#45;&gt;MIT18_330 -->
<g id="edge8" class="edge">
<title>MIT18_06SC&#45;&gt;MIT18_330</title>
<path fill="none" stroke="black" d="M718.07,-425.74C728.86,-383.71 754.16,-285.19 767.09,-234.83"/>
<polygon fill="black" stroke="black" points="770.47,-235.72 769.57,-225.16 763.69,-233.98 770.47,-235.72"/>
</g>
<!-- UCBEECS126 -->
<g id="node20" class="node">
<title>UCBEECS126</title>
<g id="a_node20"><a xlink:href="https://github.com/PKUFlyingPig/EECS126" xlink:title="!UCB EECS126\nProbability and Random Processes">
<polygon fill="none" stroke="black" points="1047.88,-134 842.12,-134 842.12,-93 1047.88,-93 1047.88,-134"/>
<text xml:space="preserve" text-anchor="middle" x="945" y="-116.7" font-family="Times New Roman,serif" font-size="14.00">!UCB EECS126</text>
<text xml:space="preserve" text-anchor="middle" x="945" y="-100.2" font-family="Times New Roman,serif" font-size="14.00">Probability and Random Processes</text>
</a>
</g>
</g>
<!-- MIT18_06SC&#45;&gt;UCBEECS126 -->
<g id="edge24" class="edge">
<title>MIT18_06SC&#45;&gt;UCBEECS126</title>
<path fill="none" stroke="black" d="M751.08,-425.6C757.6,-422.73 764.4,-420.06 771,-418 792.07,-411.43 801,-421.22 820,-410 873.28,-378.53 879.85,-356.59 906,-300.5 929.77,-249.5 939.18,-183.9 942.81,-145.79"/>
<polygon fill="black" stroke="black" points="946.29,-146.21 943.67,-135.95 939.31,-145.61 946.29,-146.21"/>
</g>
<!-- StanfordEE364a -->
<g id="node21" class="node">
<title>StanfordEE364a</title>
<g id="a_node21"><a xlink:href="https://stanford.edu/class/ee364a/" xlink:title="!Stanford EE364a\nConvex Optimization I">
<polygon fill="none" stroke="black" points="1208,-134 1066,-134 1066,-93 1208,-93 1208,-134"/>
<text xml:space="preserve" text-anchor="middle" x="1137" y="-116.7" font-family="Times New Roman,serif" font-size="14.00">!Stanford EE364a</text>
<text xml:space="preserve" text-anchor="middle" x="1137" y="-100.2" font-family="Times New Roman,serif" font-size="14.00">Convex Optimization I</text>
</a>
</g>
</g>
<!-- MIT18_06SC&#45;&gt;StanfordEE364a -->
<g id="edge25" class="edge">
<title>MIT18_06SC&#45;&gt;StanfordEE364a</title>
<path fill="none" stroke="black" d="M750,-425.56C756.82,-422.58 764,-419.88 771,-418 791.89,-412.39 848.59,-419.55 868,-410 990.98,-349.48 1084.36,-206.37 1120.58,-144.2"/>
<polygon fill="black" stroke="black" points="1123.59,-145.98 1125.53,-135.56 1117.52,-142.49 1123.59,-145.98"/>
</g>
<!-- MIT18_06SC&#45;&gt;CMU11711 -->
<g id="edge26" class="edge">
<title>MIT18_06SC&#45;&gt;CMU11711</title>
<path fill="none" stroke="black" d="M743.25,-425.62C810.78,-378.91 962.24,-259.68 888,-174.5 879.45,-164.69 842.57,-169.85 830,-166.5 804,-159.58 776.19,-148.83 753.08,-138.9"/>
<polygon fill="black" stroke="black" points="754.76,-135.82 744.2,-135.02 751.96,-142.23 754.76,-135.82"/>
</g>
<!-- MIT6_041SC&#45;&gt;UCBEECS126 -->
<g id="edge27" class="edge">
<title>MIT6_041SC&#45;&gt;UCBEECS126</title>
<path fill="none" stroke="black" d="M1018.72,-425.69C1025.03,-421.44 1030.63,-416.27 1035,-410 1094.81,-324.11 1084.39,-266.78 1035,-174.5 1027.51,-160.51 1015.16,-149.22 1001.98,-140.37"/>
<polygon fill="black" stroke="black" points="1003.92,-137.45 993.57,-135.15 1000.22,-143.4 1003.92,-137.45"/>
</g>
<!-- MIT6_041SC&#45;&gt;StanfordEE364a -->
<g id="edge28" class="edge">
<title>MIT6_041SC&#45;&gt;StanfordEE364a</title>
<path fill="none" stroke="black" d="M1046.76,-425.51C1054.2,-421.26 1061.08,-416.15 1067,-410 1137.81,-336.45 1141.55,-205.07 1139.17,-145.45"/>
<polygon fill="black" stroke="black" points="1142.67,-145.52 1138.68,-135.7 1135.68,-145.87 1142.67,-145.52"/>
</g>
<!-- MIT6_041SC&#45;&gt;CMU11711 -->
<g id="edge29" class="edge">
<title>MIT6_041SC&#45;&gt;CMU11711</title>
<path fill="none" stroke="black" d="M944.38,-425.67C956.65,-375.56 980.61,-242.97 912,-174.5 899.04,-161.57 847.78,-170.86 830,-166.5 803.56,-160.02 775.39,-149.17 752.14,-139.04"/>
<polygon fill="black" stroke="black" points="753.77,-135.94 743.21,-135.08 750.93,-142.34 753.77,-135.94"/>
</g>
<!-- StanfordEE364b -->
<g id="node22" class="node">
<title>StanfordEE364b</title>
<g id="a_node22"><a xlink:href="https://stanford.edu/class/ee364b/" xlink:title="!Stanford EE364b\nConvex Optimization II">
<polygon fill="none" stroke="black" points="1208.25,-57 1061.75,-57 1061.75,-16 1208.25,-16 1208.25,-57"/>
<text xml:space="preserve" text-anchor="middle" x="1135" y="-39.7" font-family="Times New Roman,serif" font-size="14.00">!Stanford EE364b</text>
<text xml:space="preserve" text-anchor="middle" x="1135" y="-23.2" font-family="Times New Roman,serif" font-size="14.00">Convex Optimization II</text>
</a>
</g>
</g>
<!-- StanfordEE364a&#45;&gt;StanfordEE364b -->
<g id="edge9" class="edge">
<title>StanfordEE364a&#45;&gt;StanfordEE364b</title>
<path fill="none" stroke="black" d="M1136.47,-92.79C1136.28,-85.45 1136.05,-76.91 1135.83,-68.78"/>
<polygon fill="black" stroke="black" points="1139.33,-68.75 1135.57,-58.85 1132.34,-68.94 1139.33,-68.75"/>
</g>
<!-- CMU11766 -->
<g id="node24" class="node">
<title>CMU11766</title>
<g id="a_node24"><a xlink:href="https://cmu-llms.org/" xlink:title="!CMU 11&#45;766\nLarge Language Model Applications">
<polygon fill="none" stroke="black" points="809.12,-57 592.88,-57 592.88,-16 809.12,-16 809.12,-57"/>
<text xml:space="preserve" text-anchor="middle" x="701" y="-39.7" font-family="Times New Roman,serif" font-size="14.00">!CMU 11&#45;766</text>
<text xml:space="preserve" text-anchor="middle" x="701" y="-23.2" font-family="Times New Roman,serif" font-size="14.00">Large Language Model Applications</text>
</a>
</g>
</g>
<!-- CMU11711&#45;&gt;CMU11766 -->
<g id="edge19" class="edge">
<title>CMU11711&#45;&gt;CMU11766</title>
<path fill="none" stroke="black" d="M701,-92.79C701,-85.45 701,-76.91 701,-68.78"/>
<polygon fill="black" stroke="black" points="704.5,-68.85 701,-58.85 697.5,-68.85 704.5,-68.85"/>
</g>
</g>
</svg>
